HIERARCHY
ROOT root
{
	OFFSET	0	13.1	24.9
	CHANNELS 6  Xposition Yposition Zposition Xrotation Yrotation Zrotation
	JOINT spine_1
	{
		OFFSET	0	9.99999	0
		CHANNELS 3  Xrotation Yrotation Zrotation
		JOINT spine_2
		{
			OFFSET	0	112	-10
			CHANNELS 3  Xrotation Yrotation Zrotation
			JOINT spine_3
			{
				OFFSET	0	206.5	19.3
				CHANNELS 3  Xrotation Yrotation Zrotation
				JOINT spine_4
				{
					OFFSET	0	110.4	14.6
					CHANNELS 3  Xrotation Yrotation Zrotation
					JOINT neck_1
					{
						OFFSET	0	71.8	-50.3
						CHANNELS 3  Xrotation Yrotation Zrotation
						JOINT neck_2
						{
							OFFSET	0	86.2	-25.8
							CHANNELS 3  Xrotation Yrotation Zrotation
							JOINT head_ee
							{
								OFFSET	0	179.8	-8.7
								CHANNELS 3  Xrotation Yrotation Zrotation
								End Site
								{
									OFFSET	1	0	0
								}
							}
						}
					}
					JOINT left_clavicle
					{
						OFFSET	-43.2	22.4	-70.8
						CHANNELS 3  Xrotation Yrotation Zrotation
						JOINT left_shoulder
						{
							OFFSET	-93.9	-5.79999	48.7
							CHANNELS 3  Xrotation Yrotation Zrotation
							JOINT left_elbow
							{
								OFFSET	-291.4	-30.8	15.2
								CHANNELS 3  Xrotation Yrotation Zrotation
								JOINT left_lowarm_twist
								{
									OFFSET	-110.7	-3.89999	13.6
									CHANNELS 3  Xrotation Yrotation Zrotation
									JOINT left_hand
									{
										OFFSET	-110.7	-3.89999	13.6
										CHANNELS 3  Xrotation Yrotation Zrotation
										JOINT left_ee
										{
											OFFSET	-80.8	-5.10001	12.1
											CHANNELS 3  Xrotation Yrotation Zrotation
											End Site
											{
												OFFSET	1	0	0
											}
										}
									}
								}
							}
						}
					}
					JOINT right_clavicle
					{
						OFFSET	43.2	22.4	-70.8
						CHANNELS 3  Xrotation Yrotation Zrotation
						JOINT right_shoulder
						{
							OFFSET	93.9	-5.79999	48.7
							CHANNELS 3  Xrotation Yrotation Zrotation
							JOINT right_elbow
							{
								OFFSET	291.4	-30.8	15.2
								CHANNELS 3  Xrotation Yrotation Zrotation
								JOINT right_lowarm_twist
								{
									OFFSET	110.7	-3.89999	13.6
									CHANNELS 3  Xrotation Yrotation Zrotation
									JOINT right_hand
									{
										OFFSET	110.7	-3.89999	13.6
										CHANNELS 3  Xrotation Yrotation Zrotation
										JOINT right_ee
										{
											OFFSET	80.8	-5.10001	12.1
											CHANNELS 3  Xrotation Yrotation Zrotation
											End Site
											{
												OFFSET	1	0	0
											}
										}
									}
								}
							}
						}
					}
				}
			}
		}
	}
	JOINT left_hip
	{
		OFFSET	-82.8	-127.5	0.300001
		CHANNELS 3  Xrotation Yrotation Zrotation
		JOINT left_knee
		{
			OFFSET	-28.2	-396.7	2.2
			CHANNELS 3  Xrotation Yrotation Zrotation
			JOINT left_ankle
			{
				OFFSET	-11.7	-411.3	35.4
				CHANNELS 3  Xrotation Yrotation Zrotation
				JOINT left_toes
				{
					OFFSET	0	-60	-88.6
					CHANNELS 3  Xrotation Yrotation Zrotation
					JOINT left_foot_ee
					{
						OFFSET	-22.5	-16.5	-42.2
						CHANNELS 3  Xrotation Yrotation Zrotation
						End Site
						{
							OFFSET	1	0	0
						}
					}
				}
			}
		}
	}
	JOINT right_hip
	{
		OFFSET	82.8	-127.5	0.300001
		CHANNELS 3  Xrotation Yrotation Zrotation
		JOINT right_knee
		{
			OFFSET	28.2	-396.7	2.2
			CHANNELS 3  Xrotation Yrotation Zrotation
			JOINT right_ankle
			{
				OFFSET	11.7	-411.3	35.4
				CHANNELS 3  Xrotation Yrotation Zrotation
				JOINT right_toes
				{
					OFFSET	0	-60	-88.6
					CHANNELS 3  Xrotation Yrotation Zrotation
					JOINT right_foot_ee
					{
						OFFSET	22.5	-16.5	-42.2
						CHANNELS 3  Xrotation Yrotation Zrotation
						End Site
						{
							OFFSET	1	0	0
						}
					}
				}
			}
		}
	}
}
MOTION
Frames: 7
Frame Time: 0.02
2638.53 680.126 -1113.03 -22.9426 51.1964 16.9424 4.50035 0.443396 1.67987 4.50186 0.335618 1.70467 4.51075 0.106637 1.73411 4.50675 0.37913 1.69553 -4.29397 18.3381 4.84251 -3.99781 30.0363 7.9066 -0.0 0.0 -0.0 -4.82058 13.314 -6.42133 -24.1018 -41.4687 77.8768 0.570686 -15.7858 0.079118 1.12187 0.038175 -0.138195 0.567779 14.8237 9.63126 -0.0 0.0 -0.0 11.0114 12.9115 -22.0206 -1.82324 24.7294 -59.9925 2.21276 47.6197 -0.976496 -22.6882 1.32501 -2.56166 -0.33017 8.68746 5.9286 0.0 0.0 0.0 40.3873 3.34783 -8.70994 1.80467 -0.0785107 -0.265784 1.6774 -1.79172 -0.248335 -10.3964 0.0 0.0 -0.0 0.0 -0.0 2.42448 13.4326 6.13835 -19.3726 -0.302576 -2.94334 39.4374 13.9494 5.08294 -10.1701 0.0 0.0 0.0 0.0 0.0 
2607.61 680.026 -1114.25 -22.5083 50.5446 16.5591 4.49226 0.463408 1.70017 4.4938 0.3543 1.7262 4.50336 0.122081 1.75794 4.49927 0.398142 1.71662 -3.70358 18.6786 4.92961 -3.3415 30.4465 7.90596 -0.0 0.0 -0.0 -4.46751 13.5595 -5.77127 -24.0464 -41.3548 77.49 0.556948 -15.4241 0.0754224 0.908554 0.0311248 -0.111863 0.427943 14.8113 8.74626 -0.0 0.0 -0.0 11.0111 13.0302 -22.017 -3.67339 24.3191 -59.7822 2.07298 45.7547 -0.874776 -23.5467 1.3944 -2.64701 -0.298367 7.81144 5.33761 0.0 0.0 0.0 40.9505 2.99274 -8.90346 -4.05286 0.145523 0.604838 3.13184 -2.36735 -0.462641 -9.36992 0.0 0.0 -0.0 0.0 -0.0 2.52872 13.5977 6.65287 -21.4456 -0.275658 -3.26027 39.127 8.73757 4.92259 -8.50659 0.0 0.0 0.0 0.0 0.0 
2577.38 689.131 -1118.41 -22.5345 50.9628 16.2616 4.29954 0.369889 1.56734 4.30086 0.269418 1.5877 4.30745 0.05079 1.60959 4.30396 0.304325 1.58138 -3.97048 18.9815 4.97992 -3.61993 31.0399 8.06617 -0.0 0.0 -0.0 -4.58719 12.7403 -6.16202 -22.9698 -41.3686 77.0988 0.709078 -19.3542 0.120915 0.898994 0.0308066 -0.110683 0.450007 13.9644 8.56556 -0.0 0.0 -0.0 10.9171 12.8735 -21.8103 -4.76368 23.966 -59.9571 1.83384 42.2489 -0.708571 -23.5433 1.39412 -2.64667 -0.160405 8.96747 4.8971 0.0 0.0 0.0 40.9453 2.99351 -8.9172 -9.74049 0.276867 1.46742 0.174516 0.109151 -0.0257984 -9.07113 0.0 0.0 -0.0 0.0 -0.0 1.34888 15.0664 7.69868 -23.5904 -0.235758 -3.58695 36.0337 2.72915 4.54358 -8.46625 0.0 0.0 0.0 0.0 0.0 
2550.71 689.111 -1121.91 -20.7637 50.171 15.0027 4.00761 0.32517 1.50011 4.00883 0.229066 1.51776 4.01419 0.0124624 1.53489 4.01099 0.254685 1.51367 -4.16231 19.2151 5.0515 -3.82057 31.47 8.22204 -0.0 0.0 -0.0 -4.72181 12.1488 -6.52928 -22.267 -41.3439 76.695 0.819987 -22.1067 0.160185 0.896124 0.0307113 -0.110329 0.463286 13.3711 8.42463 -0.0 0.0 -0.0 10.8305 12.7307 -21.62 -5.71438 23.6504 -60.3109 1.6799 39.763 -0.607537 -23.5406 1.3939 -2.6464 -0.0619198 9.77232 4.57392 0.0 0.0 0.0 41.1695 3.03793 -8.52913 -13.6779 0.317374 2.07009 -1.9112 1.8362 0.282812 -8.8699 0.0 0.0 -0.0 0.0 -0.0 0.438898 16.0731 8.15596 -25.11 -0.200099 -3.81741 33.7771 -1.48633 4.28975 -8.45399 0.0 0.0 0.0 0.0 0.0 
2524.93 690.326 -1128.57 -19.1986 50.1026 13.642 3.74189 0.296036 1.48034 3.74308 0.201249 1.49617 3.74774 -0.01906 1.50952 3.74463 0.219553 1.4936 -3.92062 19.4142 4.97436 -3.54692 31.8326 8.11202 -0.0 0.0 -0.0 -4.67901 11.6589 -6.56995 -21.5957 -41.3513 76.4825 0.897309 -23.9649 0.190445 0.308836 0.0107791 -0.0379697 0.361404 13.0191 7.64343 -0.0 0.0 -0.0 10.8219 12.7857 -21.5996 -6.39039 23.2512 -61.6997 1.48047 36.2534 -0.484681 -23.9468 1.42718 -2.68643 0.0355275 10.1839 4.09013 0.0 0.0 0.0 41.081 2.72263 -8.72779 -16.4033 0.321123 2.48818 -3.38396 3.81844 0.500612 -8.98346 0.0 0.0 -0.0 0.0 -0.0 -0.474641 16.6345 8.48743 -26.5599 -0.160384 -4.03637 31.9873 -5.82048 4.09677 -8.58211 0.0 0.0 0.0 0.0 0.0 
2496.63 695.768 -1143.7 -17.8164 49.5546 13.3307 3.52344 0.256056 1.45531 3.5246 0.162943 1.46865 3.52826 -0.0586125 1.47649 3.52526 0.175282 1.46722 -3.71202 19.478 4.68378 -3.314 32.1158 7.77076 -0.0 0.0 -0.0 -4.91165 11.4495 -7.02153 -21.9274 -40.8811 74.652 0.945367 -25.0936 0.210398 -0.088307 -0.00311971 0.0108463 0.213587 12.7569 6.60398 -0.0 0.0 -0.0 10.7463 12.8546 -21.4289 -7.52145 22.7521 -62.9619 1.28069 32.3903 -0.371972 -24.217 1.44947 -2.71292 0.117711 10.4135 3.63234 0.0 0.0 0.0 39.473 3.19876 -7.90568 -18.6746 0.309057 2.83644 -4.33628 6.20762 0.641064 -9.03789 0.0 0.0 -0.0 0.0 -0.0 0.352828 17.4562 7.22018 -29.0309 -0.0799645 -4.40705 30.6368 -9.01196 3.96096 -8.91121 0.0 0.0 0.0 0.0 0.0 
2463.03 691.377 -1150.75 -17.0153 50.545 12.2739 3.32232 0.205536 1.56418 3.32367 0.105599 1.57409 3.32604 -0.136661 1.5717 3.32261 0.113243 1.57356 -1.40179 20.1873 3.06353 -0.676056 34.053 5.55299 -0.0 0.0 -0.0 -4.32517 11.2912 -6.04255 -20.9921 -40.5169 72.5174 0.920152 -24.5039 0.199822 -2.18524 -0.0821027 0.266949 -0.220063 13.4106 4.12777 -0.0 0.0 -0.0 10.4665 12.9479 -20.8032 -10.7361 21.8632 -63.4394 1.13272 29.2966 -0.29608 -24.4747 1.47084 -2.73809 0.156452 12.606 4.30763 0.0 0.0 0.0 37.7438 4.61805 -7.96969 -23.9693 0.227438 3.6445 2.73785 8.22934 -0.397905 -11.1406 0.0 0.0 -0.0 0.0 -0.0 0.976061 18.1051 6.40267 -34.1715 0.13818 -5.16546 34.5846 -15.2741 4.42006 -10.2002 0.0 0.0 0.0 0.0 0.0 
